<?xml version="1.0" encoding="UTF-8"?>
<svg xmlns="http://www.w3.org/2000/svg" version="1.1" viewBox="0 0 1029.3 967.3">
  <defs>
    <style>
      .cls-1, .cls-2, .cls-3 {
        fill: none;
      }

      .cls-1, .cls-4, .cls-5, .cls-3 {
        stroke: #000;
        stroke-miterlimit: 10;
      }

      .cls-6 {
        font-size: 88.43px;
      }

      .cls-6, .cls-7, .cls-8 {
        font-family: MyriadPro-Regular, 'Myriad Pro';
      }

      .cls-7 {
        fill: #fff;
        font-size: 91.65px;
      }

      .cls-5, .cls-3 {
        stroke-width: 10px;
      }

      .cls-9 {
        fill: #d0242e;
      }

      .cls-8 {
        font-size: 133.81px;
      }
    </style>
  </defs>
  <!-- Generator: Adobe Illustrator 28.7.2, SVG Export Plug-In . SVG Version: 1.2.0 Build 154)  -->
  <g>
    <g id="Layer_1">
      <path class="cls-9" d="M518.01,508.86c-32.62,0-59.06,26.44-59.06,59.06s26.44,59.06,59.06,59.06,59.06-26.44,59.06-59.06-26.44-59.06-59.06-59.06ZM518.01,596.17c-15.6,0-28.25-12.65-28.25-28.25s12.65-28.25,28.25-28.25,28.25,12.65,28.25,28.25-12.65,28.25-28.25,28.25Z"/>
      <line class="cls-1" x1="473.11" y1="508.86" x2="272.18" y2="405.51"/>
      <path class="cls-2" d="M432.67,525.87"/>
      <line class="cls-1" x1="453.42" y1="535.11" x2="234.4" y2="422.45"/>
      <line class="cls-1" x1="439.82" y1="563.36" x2="238.89" y2="460"/>
      <path class="cls-5" d="M39.75,483.65c0,262.28,212.62,474.91,474.91,474.91,131.53,0,250.55-53.49,336.55-139.87L46.46,404.34c-4.34,25.8-6.72,52.27-6.72,79.31Z"/>
      <path class="cls-3" d="M514.65,8.75c-235.25,0-430.42,171.09-468.19,395.6l804.74,414.34c85.5-85.88,138.36-204.28,138.36-335.03,0-262.28-212.62-474.91-474.91-474.91Z"/>
      <text class="cls-8" transform="translate(455.59 302.17) scale(1.05 1)"><tspan x="0" y="0">mv²</tspan></text>
      <line class="cls-4" x1="411.15" y1="212.37" x2="373.92" y2="308.02"/>
      <text class="cls-6" transform="translate(347.42 264.12) scale(1.05 1)"><tspan x="0" y="0">1</tspan></text>
      <text class="cls-6" transform="translate(396.72 313.11) scale(1.05 1)"><tspan x="0" y="0">2</tspan></text>
      <text class="cls-7" transform="translate(174.35 744.32) scale(1.05 1)"><tspan x="0" y="0">98548K</tspan></text>
    </g>
  </g>
</svg>